<?xml version="1.0" encoding="UTF-8" ?>
<!DOCTYPE svg PUBLIC "-//W3C//DTD SVG 1.1//EN" "http://www.w3.org/Graphics/SVG/1.1/DTD/svg11.dtd">
<svg width="512pt" height="512pt" viewBox="0 0 512 512" version="1.1" xmlns="http://www.w3.org/2000/svg">
<g id="#fea71aff">
<path fill="#fea71a" opacity="1.00" d=" M 248.22 58.23 C 250.04 53.90 255.69 51.86 259.83 54.10 C 262.91 55.48 264.04 58.87 265.49 61.64 C 273.29 76.83 285.72 89.77 301.00 97.52 L 300.94 97.83 C 300.77 101.71 298.18 105.01 294.63 106.44 C 278.42 113.90 264.87 126.90 256.42 142.58 C 254.20 147.10 251.65 153.01 245.69 152.96 L 245.40 153.02 C 237.04 136.59 222.72 123.57 206.09 115.82 C 201.69 113.97 199.73 108.13 202.15 104.01 C 203.35 101.54 205.97 100.38 208.29 99.24 C 225.79 90.68 240.04 75.88 248.22 58.23 M 251.66 68.62 C 244.02 82.41 232.72 94.00 219.34 102.28 C 217.50 103.43 215.45 104.35 213.97 105.98 C 212.57 108.07 213.76 111.04 215.98 112.00 C 221.87 115.23 227.26 119.25 232.44 123.50 C 235.64 126.28 240.71 122.29 238.42 118.59 C 234.83 114.38 229.77 111.78 225.73 108.05 C 237.13 99.81 247.83 90.26 255.27 78.18 C 257.17 78.58 259.06 79.21 261.03 79.14 C 262.92 78.28 264.20 75.91 263.23 73.92 C 261.95 71.02 260.22 68.25 258.02 65.96 C 255.66 64.29 252.60 66.24 251.66 68.62 M 267.38 84.39 C 265.33 85.74 264.45 88.81 266.34 90.70 C 268.12 93.23 272.51 91.90 273.07 88.99 C 274.03 85.89 270.19 82.81 267.38 84.39 Z" />
<path fill="#fea71a" opacity="1.00" d=" M 137.80 91.88 C 146.91 82.48 159.47 77.12 172.14 74.59 C 175.91 73.42 180.04 76.99 179.29 80.89 C 177.07 96.60 170.32 112.67 157.11 122.20 C 152.25 125.85 146.69 128.36 141.16 130.80 C 136.81 131.97 132.52 133.54 128.03 134.05 C 125.08 134.51 122.06 132.02 121.95 129.05 C 121.95 126.23 122.55 123.46 123.10 120.72 C 125.78 110.20 130.15 99.77 137.80 91.88 Z" />
<path fill="#fea71a" opacity="1.00" d=" M 332.71 80.93 C 331.92 77.00 336.08 73.40 339.87 74.60 C 352.53 77.14 365.12 82.44 374.19 91.87 C 381.84 99.77 386.20 110.20 388.90 120.71 C 389.43 123.43 390.03 126.18 390.05 128.97 C 390.01 131.99 386.89 134.51 383.93 134.05 C 379.45 133.51 375.16 131.98 370.82 130.79 C 362.64 127.32 354.53 123.08 348.40 116.49 C 339.35 106.84 334.55 93.87 332.71 80.93 Z" />
<path fill="#fea71a" opacity="1.00" d=" M 70.53 111.91 C 71.24 109.54 73.45 107.65 75.98 107.72 C 78.98 107.66 80.91 110.30 82.92 112.12 C 92.38 121.43 99.39 134.07 99.08 147.64 C 99.11 157.48 96.27 167.10 92.08 175.93 C 99.30 166.58 108.36 158.19 119.62 154.09 C 131.67 149.69 145.14 151.33 156.90 155.87 C 160.67 156.99 161.91 162.28 159.12 165.01 C 150.37 174.94 138.44 182.97 124.95 184.07 C 117.19 184.73 109.35 183.49 101.98 181.07 C 95.50 179.17 89.45 175.93 84.60 171.20 C 76.74 163.79 70.00 154.66 67.51 143.99 C 65.03 133.31 66.75 122.07 70.53 111.91 Z" />
<path fill="#fea71a" opacity="1.00" d=" M 432.27 109.17 C 434.89 106.56 439.86 107.67 441.13 111.14 C 445.35 121.84 447.12 133.88 444.20 145.14 C 441.48 155.33 434.98 164.05 427.41 171.19 C 422.57 175.94 416.49 179.16 410.02 181.06 C 399.93 184.37 388.79 185.56 378.50 182.43 C 368.44 179.38 359.77 172.78 352.87 164.99 C 351.12 163.21 350.83 160.28 352.18 158.19 C 353.35 156.16 355.79 155.61 357.83 154.85 C 368.92 151.15 381.31 150.00 392.46 154.11 C 403.65 158.28 412.76 166.58 419.91 175.96 C 415.75 167.10 412.86 157.48 412.91 147.62 C 412.59 132.55 421.19 118.76 432.27 109.17 Z" />
<path fill="#fea71a" opacity="1.00" d=" M 200.14 193.87 C 200.16 190.88 203.02 188.39 205.98 188.62 C 239.31 188.58 272.65 188.59 305.98 188.62 C 308.99 188.37 311.85 190.92 311.87 193.94 C 312.03 197.93 311.87 201.94 311.92 205.93 C 321.61 205.98 331.31 205.85 341.00 205.99 C 346.96 205.85 352.42 210.99 352.46 216.98 C 352.59 228.99 352.47 241.01 352.51 253.02 C 352.47 258.34 352.91 263.83 351.11 268.94 C 347.81 279.43 337.90 287.45 326.92 288.36 C 320.80 288.77 314.66 288.28 308.53 288.64 C 308.19 287.09 308.62 285.50 308.61 283.94 C 302.51 302.63 285.41 317.12 266.06 320.44 C 265.76 335.78 265.99 351.14 265.94 366.49 C 259.31 366.28 252.68 366.42 246.06 366.45 C 246.00 351.11 246.26 335.76 245.93 320.42 C 226.50 317.09 209.71 302.56 203.19 284.04 C 203.58 285.57 204.08 287.06 204.60 288.56 C 194.86 287.93 184.42 290.24 175.36 285.60 C 165.78 281.03 159.33 270.72 159.49 260.09 C 159.51 245.69 159.42 231.29 159.54 216.90 C 159.63 210.93 165.08 205.83 171.02 205.99 C 180.71 205.85 190.40 205.98 200.08 205.93 C 200.13 201.91 199.97 197.89 200.14 193.87 M 254.11 218.29 C 252.80 218.78 251.83 219.91 251.36 221.20 C 249.53 225.96 248.37 230.95 246.47 235.68 C 245.74 237.35 243.97 238.49 242.14 238.47 C 237.11 238.73 232.07 238.29 227.04 238.64 C 223.08 238.76 221.08 244.38 224.06 246.99 C 227.69 250.07 231.79 252.54 235.53 255.47 C 237.30 256.66 238.82 258.70 238.25 260.95 C 236.99 266.10 234.84 270.98 233.57 276.13 C 232.65 279.78 237.10 283.20 240.41 281.46 C 245.21 278.68 249.28 274.80 254.06 271.99 C 256.32 270.79 258.70 272.22 260.49 273.57 C 264.24 276.17 267.70 279.20 271.65 281.49 C 274.97 283.16 279.34 279.74 278.42 276.10 C 277.15 270.99 275.03 266.13 273.77 261.02 C 273.00 258.41 275.11 256.33 277.09 255.03 C 280.68 252.29 284.57 249.93 287.98 246.94 C 290.89 244.29 288.87 238.75 284.92 238.63 C 279.76 238.28 274.59 238.76 269.43 238.44 C 267.76 238.31 266.19 237.22 265.53 235.67 C 263.63 230.95 262.47 225.96 260.64 221.21 C 259.81 218.58 256.62 217.23 254.11 218.29 M 174.23 220.89 C 174.40 234.17 174.19 247.45 174.34 260.73 C 174.43 267.30 180.02 273.19 186.58 273.62 C 191.30 273.92 196.03 273.63 200.75 273.78 C 200.15 269.87 200.06 265.92 200.07 261.97 C 200.10 248.24 200.05 234.50 200.10 220.77 C 191.48 220.85 182.85 220.62 174.23 220.89 M 311.90 220.77 C 311.95 234.18 311.90 247.59 311.93 261.00 C 311.94 265.27 311.90 269.56 311.23 273.78 C 316.44 273.54 321.69 274.12 326.86 273.41 C 332.80 272.34 337.53 266.81 337.65 260.78 C 337.83 247.48 337.59 234.18 337.77 220.89 C 329.15 220.62 320.52 220.85 311.90 220.77 M 200.91 275.78 C 200.35 278.39 201.19 280.96 202.03 283.40 L 202.96 282.84 C 202.57 280.48 202.57 277.64 200.91 275.78 M 308.87 283.48 C 311.32 281.94 311.53 278.31 311.07 275.71 C 309.29 277.84 309.46 280.90 308.87 283.48 Z" />
<path fill="#fea71a" opacity="1.00" d=" M 27.27 198.90 C 27.40 195.30 31.56 192.71 34.87 194.16 C 48.72 199.08 61.67 208.91 66.89 223.08 C 70.35 232.49 71.44 242.70 70.36 252.65 C 67.83 252.12 65.31 251.50 62.89 250.55 C 50.68 245.92 38.96 237.98 33.07 225.97 C 28.91 217.62 27.16 208.18 27.27 198.90 Z" />
<path fill="#fea71a" opacity="1.00" d=" M 477.13 194.16 C 480.45 192.70 484.60 195.32 484.73 198.93 C 484.82 210.56 482.09 222.61 475.15 232.14 C 468.70 240.88 459.10 246.71 449.09 250.57 C 446.67 251.46 444.17 252.11 441.66 252.70 C 440.60 242.77 441.47 232.45 445.20 223.13 C 450.22 208.87 463.33 199.11 477.13 194.16 Z" />
<path fill="#fea71a" opacity="1.00" d=" M 86.69 223.00 C 96.46 213.43 110.55 209.61 123.94 209.67 C 127.56 209.52 130.49 213.60 129.15 216.98 C 124.10 231.66 113.34 245.34 98.05 250.02 C 93.10 251.68 87.93 252.64 82.73 253.01 C 78.64 253.30 74.54 253.15 70.46 252.95 C 73.06 241.80 78.49 231.09 86.69 223.00 Z" />
<path fill="#fea71a" opacity="1.00" d=" M 382.83 216.93 C 381.52 213.55 384.46 209.51 388.07 209.67 C 401.45 209.61 415.49 213.44 425.30 222.95 C 433.45 231.10 438.94 241.77 441.55 252.95 C 437.45 253.16 433.35 253.29 429.26 253.01 C 418.24 252.23 407.01 248.79 398.63 241.34 C 391.29 234.82 386.06 226.14 382.83 216.93 Z" />
<path fill="#fea71a" opacity="1.00" d=" M 108.22 267.23 C 111.34 264.91 116.26 267.09 116.79 270.89 C 119.26 282.10 119.23 294.27 114.56 304.92 C 110.55 313.95 103.47 321.30 95.48 326.97 C 90.09 331.09 83.78 333.84 77.06 334.82 C 66.16 336.89 54.39 336.62 44.24 331.77 C 34.70 327.25 27.05 319.43 21.38 310.65 C 19.37 307.87 20.76 303.48 24.00 302.39 C 39.06 298.46 56.47 300.06 68.81 310.22 C 75.98 315.80 81.51 323.17 85.92 331.05 C 82.56 318.83 81.14 305.44 85.73 293.33 C 89.83 282.31 98.47 273.51 108.22 267.23 Z" />
<path fill="#fea71a" opacity="1.00" d=" M 395.21 270.88 C 395.74 267.09 400.63 264.93 403.75 267.22 C 413.56 273.51 422.24 282.36 426.30 293.46 C 430.80 305.48 429.48 318.80 426.07 330.92 C 430.60 323.16 436.02 315.77 443.17 310.22 C 455.53 300.06 472.95 298.45 488.02 302.40 C 491.26 303.52 492.61 307.92 490.59 310.70 C 484.38 320.29 475.78 328.77 465.00 332.98 C 455.72 336.49 445.41 336.79 435.73 334.90 C 428.70 334.09 422.12 331.21 416.51 326.94 C 407.11 320.34 398.95 311.22 395.63 300.04 C 392.81 290.60 393.07 280.43 395.21 270.88 Z" />
<path fill="#fea71a" opacity="1.00" d=" M 134.36 327.23 C 137.04 325.32 141.09 326.50 142.49 329.43 C 148.00 339.25 151.50 350.61 150.35 361.96 C 149.29 371.86 144.73 381.08 138.74 388.92 C 134.80 394.38 129.71 399.00 123.62 401.96 C 114.57 406.74 104.35 409.89 94.02 409.21 C 82.37 408.34 71.53 402.69 62.74 395.22 C 60.00 392.99 60.37 388.15 63.46 386.41 C 74.95 379.66 88.92 375.91 102.13 379.14 C 112.83 381.61 121.89 388.12 130.11 395.11 C 124.98 386.91 120.88 377.91 119.59 368.26 C 117.54 353.22 124.12 337.99 134.36 327.23 Z" />
<path fill="#fea71a" opacity="1.00" d=" M 369.85 328.90 C 371.64 325.75 376.60 325.40 378.81 328.29 C 388.15 339.21 394.48 353.70 392.40 368.29 C 391.09 377.92 387.03 386.91 381.89 395.07 C 389.67 388.56 398.05 382.37 407.98 379.63 C 421.67 375.60 436.50 379.32 448.52 386.39 C 451.62 388.17 451.99 393.01 449.22 395.26 C 439.72 403.36 427.70 409.30 415.01 409.31 C 405.69 409.26 396.59 406.31 388.43 401.95 C 382.32 399.01 377.19 394.40 373.26 388.91 C 367.06 380.82 362.38 371.23 361.56 360.97 C 360.70 349.73 364.24 338.53 369.85 328.90 Z" />
<path fill="#fea71a" opacity="1.00" d=" M 170.44 367.05 C 171.86 364.08 176.19 363.14 178.71 365.29 C 187.55 372.62 194.73 382.37 197.69 393.57 C 200.09 403.63 198.82 414.24 195.47 423.94 C 194.52 426.94 193.30 429.86 191.95 432.71 C 184.09 427.99 177.71 421.02 172.76 413.36 C 163.88 399.64 164.40 381.77 170.44 367.05 Z" />
<path fill="#fea71a" opacity="1.00" d=" M 333.35 365.25 C 335.89 363.12 340.21 364.14 341.60 367.12 C 347.58 381.84 348.08 399.63 339.26 413.36 C 334.26 421.01 327.89 427.95 320.07 432.78 C 318.71 429.89 317.48 426.95 316.50 423.92 C 313.08 414.27 311.96 403.61 314.29 393.58 C 317.27 382.35 324.47 372.58 333.35 365.25 Z" />
<path fill="#fea71a" opacity="1.00" d=" M 213.74 375.03 C 213.47 370.56 217.53 366.52 222.00 366.81 C 235.32 366.93 248.64 366.56 261.96 366.59 C 271.64 367.03 281.34 366.62 291.03 366.87 C 295.13 367.08 298.46 370.98 298.25 375.05 C 298.27 381.14 298.37 387.25 298.17 393.34 C 294.48 392.76 290.74 392.73 287.02 392.83 C 268.69 392.86 250.35 392.83 232.02 392.84 C 226.06 392.97 220.07 392.46 214.15 393.33 C 213.20 387.32 213.93 381.12 213.74 375.03 Z" />
<path fill="#fea71a" opacity="1.00" d=" M 156.02 426.36 C 168.31 424.54 180.73 427.70 191.86 432.84 C 189.85 435.74 187.70 438.55 185.29 441.14 C 177.47 449.42 167.51 456.33 156.06 458.16 C 146.08 459.77 135.75 458.11 126.36 454.54 C 122.83 453.21 121.85 448.15 124.53 445.53 C 132.65 436.10 143.52 428.37 156.02 426.36 Z" />
<path fill="#fea71a" opacity="1.00" d=" M 320.18 432.86 C 331.26 427.64 343.71 424.56 355.98 426.37 C 368.69 428.43 379.78 436.32 387.87 446.06 C 390.11 448.74 388.89 453.31 385.63 454.54 C 374.94 458.59 362.96 460.23 351.79 457.27 C 342.02 454.61 333.62 448.42 326.73 441.17 C 324.31 438.59 322.17 435.77 320.18 432.86 Z" />
</g>
<g id="#ffc91dff">
<path fill="#ffc91d" opacity="1.00" d=" M 251.66 68.62 C 252.60 66.24 255.66 64.29 258.02 65.96 C 260.22 68.25 261.95 71.02 263.23 73.92 C 264.20 75.91 262.92 78.28 261.03 79.14 C 259.06 79.21 257.17 78.58 255.27 78.18 C 247.83 90.26 237.13 99.81 225.73 108.05 C 229.77 111.78 234.83 114.38 238.42 118.59 C 240.71 122.29 235.64 126.28 232.44 123.50 C 227.26 119.25 221.87 115.23 215.98 112.00 C 213.76 111.04 212.57 108.07 213.97 105.98 C 215.45 104.35 217.50 103.43 219.34 102.28 C 232.72 94.00 244.02 82.41 251.66 68.62 Z" />
<path fill="#ffc91d" opacity="1.00" d=" M 267.38 84.39 C 270.19 82.81 274.03 85.89 273.07 88.99 C 272.51 91.90 268.12 93.23 266.34 90.70 C 264.45 88.81 265.33 85.74 267.38 84.39 Z" />
</g>
<g id="#ef7816ff">
<path fill="#ef7816" opacity="1.00" d=" M 300.94 97.83 C 304.82 99.18 309.24 101.11 310.74 105.29 C 312.22 109.78 309.67 114.70 305.36 116.43 C 287.26 124.84 272.40 139.84 264.07 157.97 C 262.18 162.44 256.76 164.26 252.38 162.51 C 248.71 160.66 247.01 156.61 245.69 152.96 C 251.65 153.01 254.20 147.10 256.42 142.58 C 264.87 126.90 278.42 113.90 294.63 106.44 C 298.18 105.01 300.77 101.71 300.94 97.83 Z" />
<path fill="#ef7816" opacity="1.00" d=" M 200.91 275.78 C 202.57 277.64 202.57 280.48 202.96 282.84 L 202.03 283.40 C 201.19 280.96 200.35 278.39 200.91 275.78 Z" />
<path fill="#ef7816" opacity="1.00" d=" M 308.87 283.48 C 309.46 280.90 309.29 277.84 311.07 275.71 C 311.53 278.31 311.32 281.94 308.87 283.48 Z" />
<path fill="#ef7816" opacity="1.00" d=" M 214.15 393.33 C 220.07 392.46 226.06 392.97 232.02 392.84 C 250.35 392.83 268.69 392.86 287.02 392.83 C 290.74 392.73 294.48 392.76 298.17 393.34 C 303.53 393.80 308.92 393.36 314.29 393.58 C 311.96 403.61 313.08 414.27 316.50 423.92 C 296.77 430.80 275.96 434.93 255.00 434.46 C 234.68 434.85 214.64 430.38 195.47 423.94 C 198.82 414.24 200.09 403.63 197.69 393.57 C 203.17 393.37 208.68 393.81 214.15 393.33 Z" />
</g>
<g id="#8c3f0aff">
<path fill="#8c3f0a" opacity="1.00" d=" M 99.08 147.64 C 106.35 138.05 114.03 128.65 123.10 120.72 C 122.55 123.46 121.95 126.23 121.95 129.05 C 122.06 132.02 125.08 134.51 128.03 134.05 C 132.52 133.54 136.81 131.97 141.16 130.80 C 133.68 138.26 125.76 145.43 119.62 154.09 C 108.36 158.19 99.30 166.58 92.08 175.93 C 96.27 167.10 99.11 157.48 99.08 147.64 Z" />
<path fill="#8c3f0a" opacity="1.00" d=" M 388.90 120.71 C 397.98 128.63 405.63 138.06 412.91 147.62 C 412.86 157.48 415.75 167.10 419.91 175.96 C 412.76 166.58 403.65 158.28 392.46 154.11 C 386.22 145.49 378.37 138.22 370.82 130.79 C 375.16 131.98 379.45 133.51 383.93 134.05 C 386.89 134.51 390.01 131.99 390.05 128.97 C 390.03 126.18 389.43 123.43 388.90 120.71 Z" />
<path fill="#8c3f0a" opacity="1.00" d=" M 84.60 171.20 C 89.45 175.93 95.50 179.17 101.98 181.07 C 95.06 194.29 89.98 208.45 86.69 223.00 C 78.49 231.09 73.06 241.80 70.46 252.95 C 74.54 253.15 78.64 253.30 82.73 253.01 C 82.24 266.49 82.77 280.14 85.73 293.33 C 81.14 305.44 82.56 318.83 85.92 331.05 C 81.51 323.17 75.98 315.80 68.81 310.22 C 63.85 290.79 61.60 270.59 62.89 250.55 C 65.31 251.50 67.83 252.12 70.36 252.65 C 71.44 242.70 70.35 232.49 66.89 223.08 C 66.34 221.44 66.95 219.75 67.24 218.13 C 70.99 201.84 76.65 185.93 84.60 171.20 Z" />
<path fill="#8c3f0a" opacity="1.00" d=" M 410.02 181.06 C 416.49 179.16 422.57 175.94 427.41 171.19 C 435.24 185.76 440.86 201.47 444.62 217.56 C 445.00 219.38 445.68 221.24 445.20 223.13 C 441.47 232.45 440.60 242.77 441.66 252.70 C 444.17 252.11 446.67 251.46 449.09 250.57 C 450.40 270.59 448.12 290.80 443.17 310.22 C 436.02 315.77 430.60 323.16 426.07 330.92 C 429.48 318.80 430.80 305.48 426.30 293.46 C 429.11 280.19 429.81 266.53 429.26 253.01 C 433.35 253.29 437.45 253.16 441.55 252.95 C 438.94 241.77 433.45 231.10 425.30 222.95 C 421.99 208.42 416.92 194.28 410.02 181.06 Z" />
<path fill="#8c3f0a" opacity="1.00" d=" M 77.06 334.82 C 83.78 333.84 90.09 331.09 95.48 326.97 C 101.59 341.75 109.80 355.62 119.59 368.26 C 120.88 377.91 124.98 386.91 130.11 395.11 C 121.89 388.12 112.83 381.61 102.13 379.14 C 101.86 378.11 101.39 377.18 100.72 376.36 C 91.10 363.59 83.30 349.52 77.06 334.82 Z" />
<path fill="#8c3f0a" opacity="1.00" d=" M 416.51 326.94 C 422.12 331.21 428.70 334.09 435.73 334.90 C 434.83 335.31 434.23 336.00 433.93 336.97 C 427.84 351.39 419.83 364.98 410.47 377.52 C 409.79 378.37 409.11 379.35 407.98 379.63 C 398.05 382.37 389.67 388.56 381.89 395.07 C 387.03 386.91 391.09 377.92 392.40 368.29 C 402.17 355.62 410.41 341.75 416.51 326.94 Z" />
<path fill="#8c3f0a" opacity="1.00" d=" M 123.62 401.96 C 129.71 399.00 134.80 394.38 138.74 388.92 C 149.11 398.32 160.57 406.49 172.76 413.36 C 177.71 421.02 184.09 427.99 191.95 432.71 C 193.30 429.86 194.52 426.94 195.47 423.94 C 214.64 430.38 234.68 434.85 255.00 434.46 C 275.96 434.93 296.77 430.80 316.50 423.92 C 317.48 426.95 318.71 429.89 320.07 432.78 C 327.89 427.95 334.26 421.01 339.26 413.36 C 351.45 406.50 362.90 398.33 373.26 388.91 C 377.19 394.40 382.32 399.01 388.43 401.95 C 378.54 411.19 367.87 419.88 355.98 426.37 C 343.71 424.56 331.26 427.64 320.18 432.86 C 322.17 435.77 324.31 438.59 326.73 441.17 C 313.44 447.02 299.13 450.31 284.85 452.67 C 271.03 454.40 257.01 455.77 243.09 454.28 C 226.27 453.39 209.63 449.84 193.67 444.49 C 190.85 443.44 187.91 442.67 185.29 441.14 C 187.70 438.55 189.85 435.74 191.86 432.84 C 180.73 427.70 168.31 424.54 156.02 426.36 C 144.17 419.85 133.46 411.22 123.62 401.96 Z" />
</g>
<g id="#ffffffff">
<path fill="#ffffff" opacity="1.00" d=" M 254.11 218.29 C 256.62 217.23 259.81 218.58 260.64 221.21 C 262.47 225.96 263.63 230.95 265.53 235.67 C 266.19 237.22 267.76 238.31 269.43 238.44 C 274.59 238.76 279.76 238.28 284.92 238.63 C 288.87 238.75 290.89 244.29 287.98 246.94 C 284.57 249.93 280.68 252.29 277.09 255.03 C 275.11 256.33 273.00 258.41 273.77 261.02 C 275.03 266.13 277.15 270.99 278.42 276.10 C 279.34 279.74 274.97 283.16 271.65 281.49 C 267.70 279.20 264.24 276.17 260.49 273.57 C 258.70 272.22 256.32 270.79 254.06 271.99 C 249.28 274.80 245.21 278.68 240.41 281.46 C 237.10 283.20 232.65 279.78 233.57 276.13 C 234.84 270.98 236.99 266.10 238.25 260.95 C 238.82 258.70 237.30 256.66 235.53 255.47 C 231.79 252.54 227.69 250.07 224.06 246.99 C 221.08 244.38 223.08 238.76 227.04 238.64 C 232.07 238.29 237.11 238.73 242.14 238.47 C 243.97 238.49 245.74 237.35 246.47 235.68 C 248.37 230.95 249.53 225.96 251.36 221.20 C 251.83 219.91 252.80 218.78 254.11 218.29 Z" />
</g>
</svg>
